<?xml version="1.0" encoding="utf-8"?>
<!-- Generator: Adobe Illustrator 16.0.3, SVG Export Plug-In . SVG Version: 6.00 Build 0)  -->
<!DOCTYPE svg PUBLIC "-//W3C//DTD SVG 1.1//EN" "http://www.w3.org/Graphics/SVG/1.1/DTD/svg11.dtd">
<svg version="1.1" id="Capa_1" xmlns="http://www.w3.org/2000/svg" xmlns:xlink="http://www.w3.org/1999/xlink" x="0px" y="0px"
	 width="534px" height="546px" viewBox="0 0 534 546" enable-background="new 0 0 534 546" xml:space="preserve">
<g>
	<path fill="#0B0649" d="M252.68,19.626l8.82,0.394c6.35,0.284,9.5,3.959,9.24,9.78c-0.26,5.821-3.727,9.246-10.077,8.962
		l-3.175-0.142l-0.538,12.039l-5.645-0.252L252.68,19.626z M259.797,34.393c3.528,0.157,5.148-1.494,5.297-4.845
		c0.15-3.351-1.319-5.096-4.847-5.253l-2.117-0.094l-0.451,10.098L259.797,34.393z"/>
	<path fill="#0B0649" d="M274.368,30.247c1.62-0.512,3.885-1.212,7.346-0.787c7.009,0.862,8.21,4.478,7.515,10.129l-1.212,9.856
		c-0.199,1.621-0.208,3.132-0.184,4.024l-4.906-0.603c-0.155-0.909-0.064-2.009,0.07-3.104l-0.088-0.011
		c-1.584,1.673-3.487,3.04-6.729,2.641c-3.504-0.431-6.45-3.239-5.933-7.444c0.754-6.133,5.937-7.052,12.815-6.207l1.095,0.135
		l0.102-0.833c0.275-2.234-0.567-4.428-3.678-4.81c-2.716-0.334-5.287,0.684-6.446,1.431L274.368,30.247z M283.802,41.768
		l-0.481-0.059c-4.644-0.571-7.522,0.053-7.926,3.339c-0.253,2.059,0.933,3.628,3.035,3.886c3.242,0.399,4.721-1.865,5.217-5.896
		L283.802,41.768z"/>
	<path fill="#0B0649" d="M292.404,48.916c0.794,0.522,2.772,2.096,5.281,2.606c1.947,0.396,3.558,0.229,3.91-1.502
		c0.176-0.865-0.089-1.775-1.807-3.296l-1.942-1.747c-1.977-1.799-4.151-3.729-3.438-7.232c0.625-3.071,4.271-5.708,8.985-4.749
		c2.855,0.581,4.912,1.766,5.396,2.044l-1.148,4.091c-1.235-0.792-2.566-1.558-4.513-1.955c-2.163-0.44-3.239,0.197-3.512,1.538
		c-0.246,1.211,0.573,2.054,1.928,3.366l2.295,2.224c2.408,2.337,3.537,3.873,3.008,6.469c-0.836,4.109-4.799,5.871-9.644,4.885
		c-2.769-0.563-4.929-1.679-5.966-2.34L292.404,48.916z"/>
	<path fill="#0B0649" d="M309.854,52.596c0.756,0.577,2.617,2.287,5.083,2.974c1.914,0.533,3.532,0.479,4.006-1.222
		c0.237-0.851,0.037-1.777-1.569-3.416l-1.813-1.88c-1.845-1.934-3.878-4.012-2.918-7.457c0.84-3.02,4.663-5.392,9.298-4.102
		c2.807,0.782,4.774,2.108,5.237,2.421l-1.435,4c-1.176-0.877-2.449-1.736-4.363-2.269c-2.126-0.592-3.245-0.033-3.612,1.285
		c-0.332,1.191,0.427,2.089,1.685,3.494l2.132,2.381c2.236,2.501,3.254,4.114,2.543,6.665c-1.125,4.04-5.202,5.517-9.965,4.191
		c-2.722-0.758-4.798-2.023-5.785-2.757L309.854,52.596z"/>
	<path fill="#0B0649" d="M333.708,41.437l5.18,1.771l-7.355,21.516l-5.181-1.771L333.708,41.437z M336.752,32.259l5.348,1.828
		l-1.742,5.097l-5.348-1.828L336.752,32.259z"/>
	<path fill="#0B0649" d="M353.883,48.651c4.271,1.799,8.251,6.11,4.652,14.653c-3.701,8.787-9.48,8.748-13.752,6.948
		s-8.377-5.924-4.676-14.711C343.705,46.999,349.611,46.852,353.883,48.651z M346.291,66.672c3.255,1.371,5.563-2.063,7.037-5.562
		s2.301-7.509-0.954-8.88c-3.254-1.371-5.586,2.005-7.06,5.504S343.037,65.302,346.291,66.672z"/>
	<path fill="#0B0649" d="M366.333,58.663c0.665-1.247,1.249-2.436,1.61-3.395l4.519,2.411c-0.501,1.034-0.945,2.148-1.485,3.161
		l0.078,0.042c1.345-0.833,3.872-2.288,7.145-0.542c4.558,2.432,4.113,6.548,1.952,10.6l-6.9,12.933l-4.83-2.577l6.422-12.038
		c1.642-3.077,1.549-4.778-0.438-5.838c-2.532-1.351-4.571,0.313-5.942,2.885l-6.235,11.687l-4.83-2.577L366.333,58.663z"/>
	<path fill="#0B0649" d="M398.548,77.854l-3.115-2.171l2.296-3.296l3.116,2.17l2.649-3.803c1.868-2.681,4.852-4.261,8.945-1.409
		c1.195,0.833,2.178,1.894,2.921,2.681l-2.452,3.134c-0.442-0.523-0.922-1.072-1.573-1.526c-1.305-0.909-2.769-0.583-3.753,0.829
		l-2.246,3.224l3.405,2.372l-2.297,3.296l-3.405-2.372l-10.7,15.359l-4.492-3.129L398.548,77.854z"/>
	<path fill="#0B0649" d="M419.88,88.317c3.595,2.926,6.206,8.18,0.354,15.371c-6.019,7.396-11.555,5.736-15.149,2.811
		c-3.596-2.926-6.38-8.037-0.361-15.433C410.574,83.875,416.284,85.392,419.88,88.317z M407.536,103.486
		c2.739,2.229,5.919-0.42,8.315-3.364c2.396-2.945,4.315-6.563,1.576-8.792s-5.926,0.358-8.321,3.302
		C406.71,97.577,404.797,101.257,407.536,103.486z"/>
	<path fill="#0B0649" d="M428.94,101.491c0.973-1.024,1.853-2.015,2.455-2.843l3.586,3.404c-0.91,1.023-1.787,2.139-2.729,3.131
		l0.064,0.061c1.695-0.825,4.828-1.624,7.294,0.716c0.256,0.243,0.387,0.49,0.581,0.734l-3.526,3.713
		c-0.261-0.43-0.552-0.829-0.969-1.224c-1.632-1.55-4.367-2.26-7.285,0.813l-8.571,9.028l-3.97-3.769L428.94,101.491z"/>
	<path fill="#0B0649" d="M458.407,114.571l10.359,12.454l-3.461,2.879l-6.747-8.11l-6.312,5.25l6.379,7.669l-3.461,2.879
		l-6.38-7.669l-6.99,5.815l7.028,8.45l-3.461,2.879l-10.643-12.793L458.407,114.571z"/>
	<path fill="#0B0649" d="M463.997,140.931l-2.212-3.085l3.265-2.341l2.212,3.085l3.767-2.701c2.655-1.904,5.995-2.397,8.901,1.656
		c0.85,1.184,1.422,2.512,1.859,3.501l-3.357,2.136c-0.242-0.641-0.51-1.318-0.974-1.963c-0.926-1.292-2.414-1.474-3.813-0.47
		l-3.192,2.29l2.418,3.372l-3.265,2.341l-2.418-3.372l-15.21,10.908l-3.19-4.448L463.997,140.931z"/>
	<path fill="#0B0649" d="M472.963,153.699l-1.966-3.248l3.437-2.08l1.966,3.248l3.966-2.4c2.794-1.691,6.162-1.924,8.745,2.344
		c0.755,1.246,1.222,2.615,1.581,3.635l-3.513,1.869c-0.192-0.658-0.407-1.354-0.818-2.034c-0.822-1.359-2.293-1.657-3.766-0.765
		l-3.361,2.034l2.149,3.55l-3.438,2.08l-2.148-3.55l-16.013,9.692l-2.834-4.683L472.963,153.699z M482.937,162.42l2.835,4.683
		l-19.449,11.772l-2.835-4.683L482.937,162.42z M491.162,157.338l2.926,4.834l-4.607,2.789l-2.926-4.834L491.162,157.338z"/>
	<path fill="#0B0649" d="M475.88,196.771c-1.002-0.934-2.237-2.441-3.213-4.421c-3.317-6.731-0.011-11.905,5.771-14.754
		c5.82-2.869,12.016-2.182,15.392,4.668c0.762,1.544,1.185,3.6,1.276,4.686l-4.017,1.635c0.006-1.085-0.045-2.586-0.708-3.933
		c-1.835-3.722-5.129-4.116-9.485-1.969c-3.801,1.874-5.833,5.139-3.979,8.901c0.586,1.188,1.94,2.538,2.707,2.997L475.88,196.771z"
		/>
	<path fill="#0B0649" d="M497.593,191.416l2.123,5.046l-20.958,8.817l-2.123-5.046L497.593,191.416z M506.471,187.585l2.191,5.209
		l-4.965,2.088l-2.191-5.209L506.471,187.585z"/>
	<path fill="#0B0649" d="M487.213,225.294c-0.834-0.927-2.529-2.863-3.596-5.952c-2.391-6.928,1.538-11.646,7.339-13.648
		c6.427-2.218,12.56-0.552,14.447,4.915c1.599,4.632,0.254,9.533-8.51,12.558l-1.001,0.346l-4.293-12.437
		c-3.673,1.268-5.38,3.492-3.997,7.498c1.095,3.171,2.573,4.343,3.613,5.058L487.213,225.294z M497.419,217.381
		c3.798-1.311,5.285-3.225,4.479-5.562c-0.937-2.713-4.205-2.846-7.043-1.866L497.419,217.381z"/>
	<path fill="#0B0649" d="M505.976,225.609c1.371-0.341,2.646-0.703,3.6-1.077l1.235,4.97c-1.104,0.319-2.229,0.736-3.343,1.013
		l0.021,0.085c1.521,0.441,4.292,1.344,5.187,4.943c1.246,5.013-2.108,7.439-6.564,8.547l-14.225,3.536l-1.321-5.313l13.24-3.291
		c3.385-0.841,4.585-2.05,4.042-4.235c-0.692-2.785-3.294-3.185-6.121-2.482l-12.854,3.195l-1.32-5.313L505.976,225.609z"/>
	<path fill="#0B0649" d="M495.734,267.05c-0.686-1.186-1.427-2.987-1.782-5.166c-1.209-7.406,3.463-11.389,9.823-12.427
		c6.404-1.045,12.129,1.419,13.359,8.956c0.277,1.699,0.081,3.789-0.147,4.854l-4.319,0.392c0.323-1.036,0.713-2.486,0.471-3.968
		c-0.668-4.095-3.704-5.433-8.496-4.651c-4.183,0.683-7.079,3.213-6.403,7.352c0.213,1.307,1.114,2.993,1.715,3.656L495.734,267.05z
		"/>
	<path fill="#0B0649" d="M501.707,277.396l0.007,0.088l17.486,2.889l0.452,5.279l-27.676-5.96c-3.206-0.7-5.695-2.348-6.009-6
		c-0.124-1.452,0.078-2.71,0.274-3.524l4.205-0.05c-0.167,0.635-0.334,1.27-0.263,2.105c0.096,1.632,1.168,2.249,3.56,2.753
		l1.97,0.23l22.23-9.482l0.482,5.631L501.707,277.396z"/>
</g>
<g>
	
		<linearGradient id="SVGID_1_" gradientUnits="userSpaceOnUse" x1="596.6113" y1="529.3877" x2="1045.9414" y2="529.3877" gradientTransform="matrix(0 1 -1 0 896.5469 -531.8887)">
		<stop  offset="0" style="stop-color:#12491D"/>
		<stop  offset="1" style="stop-color:#00A0C6;stop-opacity:0"/>
	</linearGradient>
	<path fill="url(#SVGID_1_)" d="M249.605,184.641V64.723c0,0,227.861,5.929,235.107,234.1
		c-2.166,162.289-143.343,215.23-143.343,215.23s109.412-62.353,64.706-216.471C363.724,179.935,249.605,184.641,249.605,184.641z"
		/>
	<linearGradient id="SVGID_2_" gradientUnits="userSpaceOnUse" x1="13.082" y1="182.3291" x2="462.4121" y2="182.3291">
		<stop  offset="0" style="stop-color:#80C41C"/>
		<stop  offset="1" style="stop-color:#FFFF00;stop-opacity:0"/>
	</linearGradient>
	<path fill="url(#SVGID_2_)" d="M133,299.882H13.082c0,0,5.929-227.861,234.1-235.107c162.289,2.166,215.23,143.342,215.23,143.342
		S400.06,98.706,245.941,143.412C128.294,185.765,133,299.882,133,299.882z"/>
	
		<linearGradient id="SVGID_3_" gradientUnits="userSpaceOnUse" x1="972.2549" y1="1115.0957" x2="1421.5859" y2="1115.0957" gradientTransform="matrix(0 -1 1 0 -983.4063 1505.9551)">
		<stop  offset="0" style="stop-color:#40A629"/>
		<stop  offset="1" style="stop-color:#008837;stop-opacity:0"/>
	</linearGradient>
	<path fill="url(#SVGID_3_)" d="M249.242,413.782V533.7c0,0-227.862-5.929-235.107-234.101
		c2.166-162.289,143.342-215.23,143.342-215.23S48.065,146.721,92.771,300.84C135.124,418.488,249.242,413.782,249.242,413.782z"/>
	
		<linearGradient id="SVGID_4_" gradientUnits="userSpaceOnUse" x1="413.0791" y1="792.918" x2="862.4092" y2="792.918" gradientTransform="matrix(-1 0 0 -1 900.1973 1208.1875)">
		<stop  offset="0" style="stop-color:#13007C"/>
		<stop  offset="1" style="stop-color:#008837;stop-opacity:0"/>
	</linearGradient>
	<path fill="url(#SVGID_4_)" d="M367.2,297.716h119.918c0,0-5.929,227.862-234.1,235.107
		c-162.289-2.166-215.23-143.342-215.23-143.342s62.352,109.412,216.471,64.706C371.906,411.835,367.2,297.716,367.2,297.716z"/>
</g>
<g>
	<path fill="#0B0146" d="M143.904,266.271v-59.824h26.904v5.574h-20.765v20.561h15.232v5.494h-15.232v22.661h21.492v5.533H143.904z"
		/>
	<path fill="#0B0146" d="M188.418,224.908c-0.832-2.233-1.627-4.504-2.382-6.806c-0.756-2.305-1.481-4.638-2.182-7.009v55.178
		h-5.375v-59.824h8.928l12.363,33.933c0.942,2.694,1.817,5.271,2.624,7.731c0.811,2.469,1.551,4.858,2.223,7.173
		c-0.16-1.775-0.281-3.606-0.363-5.494c-0.084-1.886-0.123-4.416-0.123-7.594v-35.749h5.372v59.824h-6.018L188.418,224.908z"/>
	<path fill="#0B0146" d="M220.329,266.271v-59.824h26.902v5.574h-20.763v20.561h15.232v5.494h-15.232v22.661h21.492v5.533H220.329z"
		/>
	<path fill="#0B0146" d="M254.825,266.271v-59.824h10.908c6.489,0,11.331,1.298,14.521,3.898c3.19,2.599,4.786,6.535,4.786,11.815
		c0,3.664-0.808,6.719-2.424,9.17c-1.615,2.453-3.958,4.175-7.029,5.17l9.776,29.77h-6.625l-9.007-28.437
		c-1.641,0.053-2.922,0.094-3.839,0.121c-0.914,0.028-1.761,0.043-2.544,0.043h-2.383v28.272H254.825z M260.967,232.582h5.211
		c4.095,0,7.171-0.87,9.23-2.603c2.059-1.744,3.089-4.344,3.089-7.819c0-3.503-1.016-6.113-3.046-7.836
		c-2.038-1.726-5.127-2.585-9.273-2.585h-5.211V232.582z"/>
	<path fill="#0B0146" d="M319.658,266.271l-0.646-3.474c-1.346,1.588-2.859,2.759-4.543,3.515c-1.683,0.754-3.644,1.13-5.877,1.13
		c-5.682,0-9.945-2.526-12.787-7.571c-2.842-5.054-4.26-12.626-4.26-22.724c0-10.906,1.394-18.951,4.18-24.135
		s7.104-7.776,12.947-7.776c4.578,0,8.187,1.663,10.824,4.988c2.644,3.325,3.96,7.91,3.96,13.755h-5.937
		c-0.218-4.362-1.086-7.681-2.606-9.959c-1.521-2.275-3.628-3.41-6.321-3.41c-3.771,0-6.479,2.011-8.12,6.04
		c-1.644,4.023-2.464,10.805-2.464,20.336c0,8.728,0.902,15.074,2.708,19.044c1.803,3.974,4.671,5.959,8.604,5.959
		c2.745,0,4.904-1.011,6.481-3.032c1.576-2.015,2.364-4.793,2.364-8.32v-7.025h-8.686v-5.375h14.502v28.034H319.658z"/>
	<path fill="#0B0146" d="M333.312,266.271v-59.824h6.142v59.824H333.312z"/>
	<path fill="#0B0146" d="M346.158,266.271l12.967-59.824h8.443l13.086,59.824h-6.463l-3.475-17.611h-15.068l-3.473,17.611H346.158z
		 M356.984,243.044h12.482l-6.264-31.305L356.984,243.044z"/>
	<path fill="#0B0146" d="M141.522,354.777h7.881c0.294,5.326,1.497,9.266,3.611,11.824c2.11,2.551,5.239,3.826,9.393,3.826
		c3.563,0,6.45-1.23,8.655-3.693c2.205-2.461,3.307-5.73,3.307-9.809c0-3.566-1.028-6.826-3.088-9.783
		c-2.057-2.957-6.302-6.805-12.729-11.545c-6.428-4.779-10.673-8.835-12.732-12.179c-2.059-3.346-3.087-7.275-3.087-11.796
		c0-5.218,1.718-9.58,5.155-13.092c3.437-3.503,7.74-5.261,12.925-5.261c6.096,0,10.892,1.939,14.382,5.813
		c3.492,3.879,5.348,9.306,5.567,16.288h-7.717c-0.367-4.999-1.542-8.764-3.528-11.299c-1.98-2.535-4.773-3.801-8.377-3.801
		c-3.34,0-6.005,1.031-7.991,3.084c-1.98,2.058-2.975,4.812-2.975,8.267c0,1.763,0.349,3.481,1.048,5.155
		c0.697,1.671,1.674,3.168,2.92,4.489c1.838,1.912,4.603,4.244,8.296,7c3.692,2.758,6.015,4.518,6.973,5.293
		c4.59,3.707,7.879,7.344,9.863,10.91c1.983,3.564,2.977,7.604,2.977,12.125c0,6.467-1.84,11.658-5.512,15.566
		c-3.674,3.918-8.522,5.871-14.55,5.871c-6.468,0-11.5-2.021-15.099-6.064C143.485,367.934,141.632,362.201,141.522,354.777z"/>
	<path fill="#0B0146" d="M203.909,376.436v-74.622h-16.37v-6.999h41.007v6.999h-16.37v74.622H203.909z"/>
	<path fill="#0B0146" d="M254.779,378.033c-7.423,0-13.027-3.588-16.811-10.771c-3.783-7.189-5.678-17.74-5.678-31.664
		c0-13.96,1.895-24.51,5.678-31.637c3.783-7.125,9.388-10.69,16.811-10.69c7.384,0,12.986,3.574,16.805,10.721
		c3.824,7.146,5.734,17.681,5.734,31.606c0,13.924-1.91,24.475-5.734,31.664C267.766,374.445,262.163,378.033,254.779,378.033z
		 M254.779,300.823c-4.705,0-8.157,2.645-10.363,7.934c-2.205,5.292-3.309,13.598-3.309,24.912c0,12.968,1.077,22.319,3.227,28.052
		c2.148,5.73,5.63,8.598,10.445,8.598c4.702,0,8.145-2.756,10.33-8.268s3.28-14.33,3.28-26.453c0-12.052-1.095-20.862-3.28-26.424
		C262.924,303.604,259.481,300.823,254.779,300.823z"/>
	<path fill="#0B0146" d="M289.278,376.436v-81.621h14.88c8.853,0,15.459,1.771,19.814,5.319c4.354,3.544,6.529,8.919,6.529,16.119
		c0,4.998-1.104,9.166-3.307,12.512c-2.205,3.343-5.399,5.692-9.59,7.054l13.334,40.617h-9.036l-12.29-38.799
		c-2.239,0.07-3.987,0.129-5.233,0.164c-1.25,0.035-2.409,0.057-3.473,0.057h-3.254v38.578H289.278z M297.653,330.471h7.111
		c5.585,0,9.781-1.186,12.595-3.553c2.809-2.374,4.214-5.927,4.214-10.665c0-4.777-1.387-8.34-4.161-10.691
		c-2.775-2.353-6.993-3.525-12.647-3.525h-7.111V330.471z"/>
	<path fill="#0B0146" d="M342.075,376.436v-81.621h36.706v7.604h-28.328v28.052h20.775v7.496h-20.775v30.916h29.318v7.553H342.075z"
		/>
</g>
<line fill="none" stroke="#0B0146" stroke-width="5" stroke-miterlimit="10" x1="337.375" y1="201.669" x2="346.786" y2="185.199"/>
</svg>
